<mxfile host="Electron" agent="Mozilla/5.0 (Macintosh; Intel Mac OS X 10_15_7) AppleWebKit/537.36 (KHTML, like Gecko) draw.io/26.0.16 Chrome/132.0.6834.196 Electron/34.2.0 Safari/537.36" version="26.0.16">
  <diagram name="第 1 页" id="-ZOc3veKJeFM5KGvulX8">
    <mxGraphModel dx="2726" dy="1766" grid="1" gridSize="10" guides="1" tooltips="1" connect="1" arrows="1" fold="1" page="1" pageScale="1" pageWidth="827" pageHeight="1169" math="0" shadow="0">
      <root>
        <mxCell id="0" />
        <mxCell id="1" parent="0" />
        <mxCell id="pBgCpkDC4Ms9tkoetQ4E-1" value="T1" style="text;html=1;align=center;verticalAlign=middle;whiteSpace=wrap;rounded=0;fontSize=25;" vertex="1" parent="1">
          <mxGeometry x="170" y="130" width="120" height="60" as="geometry" />
        </mxCell>
        <mxCell id="pBgCpkDC4Ms9tkoetQ4E-2" value="T2" style="text;html=1;align=center;verticalAlign=middle;whiteSpace=wrap;rounded=0;fontSize=25;" vertex="1" parent="1">
          <mxGeometry x="275" y="130" width="120" height="60" as="geometry" />
        </mxCell>
        <mxCell id="pBgCpkDC4Ms9tkoetQ4E-3" value="T3" style="text;html=1;align=center;verticalAlign=middle;whiteSpace=wrap;rounded=0;fontSize=25;" vertex="1" parent="1">
          <mxGeometry x="380" y="130" width="120" height="60" as="geometry" />
        </mxCell>
        <mxCell id="pBgCpkDC4Ms9tkoetQ4E-4" value="T4" style="text;html=1;align=center;verticalAlign=middle;whiteSpace=wrap;rounded=0;fontSize=25;" vertex="1" parent="1">
          <mxGeometry x="480" y="130" width="120" height="60" as="geometry" />
        </mxCell>
        <mxCell id="pBgCpkDC4Ms9tkoetQ4E-5" value="T5" style="text;html=1;align=center;verticalAlign=middle;whiteSpace=wrap;rounded=0;fontSize=25;" vertex="1" parent="1">
          <mxGeometry x="570" y="130" width="120" height="60" as="geometry" />
        </mxCell>
        <mxCell id="pBgCpkDC4Ms9tkoetQ4E-6" value="R(X)" style="text;html=1;align=center;verticalAlign=middle;whiteSpace=wrap;rounded=0;fontSize=20;" vertex="1" parent="1">
          <mxGeometry x="585" y="190" width="90" height="40" as="geometry" />
        </mxCell>
        <mxCell id="pBgCpkDC4Ms9tkoetQ4E-9" value="R(X)" style="text;html=1;align=center;verticalAlign=middle;whiteSpace=wrap;rounded=0;fontSize=20;" vertex="1" parent="1">
          <mxGeometry x="185" y="230" width="90" height="40" as="geometry" />
        </mxCell>
        <mxCell id="pBgCpkDC4Ms9tkoetQ4E-10" value="W(X)" style="text;html=1;align=center;verticalAlign=middle;whiteSpace=wrap;rounded=0;fontSize=20;" vertex="1" parent="1">
          <mxGeometry x="290" y="270" width="90" height="40" as="geometry" />
        </mxCell>
        <mxCell id="pBgCpkDC4Ms9tkoetQ4E-11" value="R(Y)" style="text;html=1;align=center;verticalAlign=middle;whiteSpace=wrap;rounded=0;fontSize=20;" vertex="1" parent="1">
          <mxGeometry x="185" y="310" width="90" height="40" as="geometry" />
        </mxCell>
        <mxCell id="pBgCpkDC4Ms9tkoetQ4E-12" value="R(Y)" style="text;html=1;align=center;verticalAlign=middle;whiteSpace=wrap;rounded=0;fontSize=20;" vertex="1" parent="1">
          <mxGeometry x="395" y="350" width="90" height="40" as="geometry" />
        </mxCell>
        <mxCell id="pBgCpkDC4Ms9tkoetQ4E-13" value="W(Z)" style="text;html=1;align=center;verticalAlign=middle;whiteSpace=wrap;rounded=0;fontSize=20;" vertex="1" parent="1">
          <mxGeometry x="395" y="390" width="90" height="40" as="geometry" />
        </mxCell>
        <mxCell id="pBgCpkDC4Ms9tkoetQ4E-14" value="R(X)" style="text;html=1;align=center;verticalAlign=middle;whiteSpace=wrap;rounded=0;fontSize=20;" vertex="1" parent="1">
          <mxGeometry x="495" y="430" width="90" height="40" as="geometry" />
        </mxCell>
        <mxCell id="pBgCpkDC4Ms9tkoetQ4E-15" value="W(Y)" style="text;html=1;align=center;verticalAlign=middle;whiteSpace=wrap;rounded=0;fontSize=20;" vertex="1" parent="1">
          <mxGeometry x="495" y="470" width="90" height="40" as="geometry" />
        </mxCell>
        <mxCell id="pBgCpkDC4Ms9tkoetQ4E-16" value="R(Z)" style="text;html=1;align=center;verticalAlign=middle;whiteSpace=wrap;rounded=0;fontSize=20;" vertex="1" parent="1">
          <mxGeometry x="585" y="510" width="90" height="40" as="geometry" />
        </mxCell>
        <mxCell id="pBgCpkDC4Ms9tkoetQ4E-17" value="W(Z)" style="text;html=1;align=center;verticalAlign=middle;whiteSpace=wrap;rounded=0;fontSize=20;" vertex="1" parent="1">
          <mxGeometry x="585" y="550" width="90" height="40" as="geometry" />
        </mxCell>
        <mxCell id="pBgCpkDC4Ms9tkoetQ4E-18" value="" style="endArrow=classic;html=1;rounded=0;exitX=0;exitY=0.5;exitDx=0;exitDy=0;entryX=1;entryY=0.25;entryDx=0;entryDy=0;" edge="1" parent="1" source="pBgCpkDC4Ms9tkoetQ4E-6" target="pBgCpkDC4Ms9tkoetQ4E-10">
          <mxGeometry width="50" height="50" relative="1" as="geometry">
            <mxPoint x="530" y="400" as="sourcePoint" />
            <mxPoint x="580" y="350" as="targetPoint" />
          </mxGeometry>
        </mxCell>
        <mxCell id="pBgCpkDC4Ms9tkoetQ4E-19" value="" style="endArrow=classic;html=1;rounded=0;entryX=0;entryY=0.25;entryDx=0;entryDy=0;exitX=1;exitY=0.5;exitDx=0;exitDy=0;" edge="1" parent="1" source="pBgCpkDC4Ms9tkoetQ4E-9" target="pBgCpkDC4Ms9tkoetQ4E-10">
          <mxGeometry width="50" height="50" relative="1" as="geometry">
            <mxPoint x="270" y="240" as="sourcePoint" />
            <mxPoint x="390" y="290" as="targetPoint" />
          </mxGeometry>
        </mxCell>
        <mxCell id="pBgCpkDC4Ms9tkoetQ4E-20" value="" style="endArrow=classic;html=1;rounded=0;exitX=1;exitY=0.75;exitDx=0;exitDy=0;entryX=0.5;entryY=0;entryDx=0;entryDy=0;" edge="1" parent="1" source="pBgCpkDC4Ms9tkoetQ4E-10" target="pBgCpkDC4Ms9tkoetQ4E-14">
          <mxGeometry width="50" height="50" relative="1" as="geometry">
            <mxPoint x="530" y="400" as="sourcePoint" />
            <mxPoint x="580" y="350" as="targetPoint" />
          </mxGeometry>
        </mxCell>
        <mxCell id="pBgCpkDC4Ms9tkoetQ4E-21" value="" style="endArrow=classic;html=1;rounded=0;exitX=1;exitY=0.75;exitDx=0;exitDy=0;entryX=0;entryY=0.25;entryDx=0;entryDy=0;" edge="1" parent="1" source="pBgCpkDC4Ms9tkoetQ4E-11" target="pBgCpkDC4Ms9tkoetQ4E-15">
          <mxGeometry width="50" height="50" relative="1" as="geometry">
            <mxPoint x="530" y="400" as="sourcePoint" />
            <mxPoint x="580" y="350" as="targetPoint" />
          </mxGeometry>
        </mxCell>
        <mxCell id="pBgCpkDC4Ms9tkoetQ4E-22" value="" style="endArrow=classic;html=1;rounded=0;entryX=0.25;entryY=0;entryDx=0;entryDy=0;" edge="1" parent="1">
          <mxGeometry width="50" height="50" relative="1" as="geometry">
            <mxPoint x="462" y="384" as="sourcePoint" />
            <mxPoint x="519.5" y="474" as="targetPoint" />
          </mxGeometry>
        </mxCell>
        <mxCell id="pBgCpkDC4Ms9tkoetQ4E-23" value="" style="endArrow=classic;html=1;rounded=0;exitX=0.833;exitY=0.75;exitDx=0;exitDy=0;exitPerimeter=0;" edge="1" parent="1">
          <mxGeometry width="50" height="50" relative="1" as="geometry">
            <mxPoint x="468.97" y="424" as="sourcePoint" />
            <mxPoint x="599.9036363636365" y="514" as="targetPoint" />
          </mxGeometry>
        </mxCell>
        <mxCell id="pBgCpkDC4Ms9tkoetQ4E-24" value="" style="endArrow=classic;html=1;rounded=0;entryX=0.167;entryY=0.25;entryDx=0;entryDy=0;entryPerimeter=0;" edge="1" parent="1" source="pBgCpkDC4Ms9tkoetQ4E-13" target="pBgCpkDC4Ms9tkoetQ4E-17">
          <mxGeometry width="50" height="50" relative="1" as="geometry">
            <mxPoint x="478.97" y="434" as="sourcePoint" />
            <mxPoint x="609.9036363636365" y="524" as="targetPoint" />
          </mxGeometry>
        </mxCell>
        <mxCell id="pBgCpkDC4Ms9tkoetQ4E-26" value="T1" style="text;html=1;align=center;verticalAlign=middle;whiteSpace=wrap;rounded=0;fontSize=25;" vertex="1" parent="1">
          <mxGeometry x="970" y="200" width="50" height="20" as="geometry" />
        </mxCell>
        <mxCell id="pBgCpkDC4Ms9tkoetQ4E-27" value="T2" style="text;html=1;align=center;verticalAlign=middle;whiteSpace=wrap;rounded=0;fontSize=25;" vertex="1" parent="1">
          <mxGeometry x="1050" y="260" width="60" height="30" as="geometry" />
        </mxCell>
        <mxCell id="pBgCpkDC4Ms9tkoetQ4E-28" value="T3" style="text;html=1;align=center;verticalAlign=middle;whiteSpace=wrap;rounded=0;fontSize=25;" vertex="1" parent="1">
          <mxGeometry x="990" y="350" width="50" as="geometry" />
        </mxCell>
        <mxCell id="pBgCpkDC4Ms9tkoetQ4E-29" value="T4" style="text;html=1;align=center;verticalAlign=middle;whiteSpace=wrap;rounded=0;fontSize=25;" vertex="1" parent="1">
          <mxGeometry x="890" y="310" width="30" height="20" as="geometry" />
        </mxCell>
        <mxCell id="pBgCpkDC4Ms9tkoetQ4E-30" value="T5" style="text;html=1;align=center;verticalAlign=middle;whiteSpace=wrap;rounded=0;fontSize=25;" vertex="1" parent="1">
          <mxGeometry x="880" y="240" width="40" height="10" as="geometry" />
        </mxCell>
        <mxCell id="pBgCpkDC4Ms9tkoetQ4E-31" value="" style="endArrow=classic;html=1;rounded=0;entryX=0.25;entryY=0;entryDx=0;entryDy=0;" edge="1" parent="1" target="pBgCpkDC4Ms9tkoetQ4E-27">
          <mxGeometry width="50" height="50" relative="1" as="geometry">
            <mxPoint x="1020" y="220" as="sourcePoint" />
            <mxPoint x="1060" y="100" as="targetPoint" />
          </mxGeometry>
        </mxCell>
        <mxCell id="pBgCpkDC4Ms9tkoetQ4E-32" value="" style="endArrow=classic;html=1;rounded=0;exitX=1;exitY=1;exitDx=0;exitDy=0;" edge="1" parent="1" source="pBgCpkDC4Ms9tkoetQ4E-30">
          <mxGeometry width="50" height="50" relative="1" as="geometry">
            <mxPoint x="1030" y="230" as="sourcePoint" />
            <mxPoint x="1060" y="270" as="targetPoint" />
          </mxGeometry>
        </mxCell>
        <mxCell id="pBgCpkDC4Ms9tkoetQ4E-33" value="" style="endArrow=classic;html=1;rounded=0;entryX=1;entryY=0.25;entryDx=0;entryDy=0;exitX=0.5;exitY=1;exitDx=0;exitDy=0;" edge="1" parent="1" source="pBgCpkDC4Ms9tkoetQ4E-26" target="pBgCpkDC4Ms9tkoetQ4E-29">
          <mxGeometry width="50" height="50" relative="1" as="geometry">
            <mxPoint x="1040" y="240" as="sourcePoint" />
            <mxPoint x="1085" y="280" as="targetPoint" />
          </mxGeometry>
        </mxCell>
        <mxCell id="pBgCpkDC4Ms9tkoetQ4E-34" value="" style="endArrow=classic;html=1;rounded=0;exitX=0.25;exitY=1;exitDx=0;exitDy=0;" edge="1" parent="1">
          <mxGeometry width="50" height="50" relative="1" as="geometry">
            <mxPoint x="1063.5" y="282" as="sourcePoint" />
            <mxPoint x="926" y="317" as="targetPoint" />
          </mxGeometry>
        </mxCell>
        <mxCell id="pBgCpkDC4Ms9tkoetQ4E-35" value="" style="endArrow=classic;html=1;rounded=0;" edge="1" parent="1">
          <mxGeometry width="50" height="50" relative="1" as="geometry">
            <mxPoint x="1004" y="336" as="sourcePoint" />
            <mxPoint x="914" y="256" as="targetPoint" />
          </mxGeometry>
        </mxCell>
        <mxCell id="pBgCpkDC4Ms9tkoetQ4E-36" value="" style="endArrow=classic;html=1;rounded=0;entryX=1;entryY=1;entryDx=0;entryDy=0;" edge="1" parent="1">
          <mxGeometry width="50" height="50" relative="1" as="geometry">
            <mxPoint x="990" y="350" as="sourcePoint" />
            <mxPoint x="930" y="330" as="targetPoint" />
          </mxGeometry>
        </mxCell>
        <mxCell id="pBgCpkDC4Ms9tkoetQ4E-37" value="T1" style="text;html=1;align=center;verticalAlign=middle;whiteSpace=wrap;rounded=0;fontSize=25;" vertex="1" parent="1">
          <mxGeometry x="1250" y="100" width="50" height="20" as="geometry" />
        </mxCell>
        <mxCell id="pBgCpkDC4Ms9tkoetQ4E-38" value="T2" style="text;html=1;align=center;verticalAlign=middle;whiteSpace=wrap;rounded=0;fontSize=25;" vertex="1" parent="1">
          <mxGeometry x="1245" y="330" width="60" height="30" as="geometry" />
        </mxCell>
        <mxCell id="pBgCpkDC4Ms9tkoetQ4E-39" value="T4" style="text;html=1;align=center;verticalAlign=middle;whiteSpace=wrap;rounded=0;fontSize=25;" vertex="1" parent="1">
          <mxGeometry x="1260" y="420" width="30" height="20" as="geometry" />
        </mxCell>
        <mxCell id="pBgCpkDC4Ms9tkoetQ4E-40" value="T5" style="text;html=1;align=center;verticalAlign=middle;whiteSpace=wrap;rounded=0;fontSize=25;" vertex="1" parent="1">
          <mxGeometry x="1260" y="260" width="30" height="20" as="geometry" />
        </mxCell>
        <mxCell id="pBgCpkDC4Ms9tkoetQ4E-41" value="T3" style="text;html=1;align=center;verticalAlign=middle;whiteSpace=wrap;rounded=0;fontSize=25;" vertex="1" parent="1">
          <mxGeometry x="1260" y="180" width="30" height="20" as="geometry" />
        </mxCell>
        <mxCell id="pBgCpkDC4Ms9tkoetQ4E-45" value="" style="curved=1;endArrow=classic;html=1;rounded=0;exitX=1;exitY=0.5;exitDx=0;exitDy=0;entryX=1;entryY=0.5;entryDx=0;entryDy=0;" edge="1" parent="1" source="pBgCpkDC4Ms9tkoetQ4E-37" target="pBgCpkDC4Ms9tkoetQ4E-38">
          <mxGeometry width="50" height="50" relative="1" as="geometry">
            <mxPoint x="1440" y="110" as="sourcePoint" />
            <mxPoint x="1470" y="300" as="targetPoint" />
            <Array as="points">
              <mxPoint x="1340" y="170" />
              <mxPoint x="1320" y="340" />
            </Array>
          </mxGeometry>
        </mxCell>
        <mxCell id="pBgCpkDC4Ms9tkoetQ4E-46" value="" style="curved=1;endArrow=classic;html=1;rounded=0;" edge="1" parent="1">
          <mxGeometry width="50" height="50" relative="1" as="geometry">
            <mxPoint x="1300" y="110" as="sourcePoint" />
            <mxPoint x="1300" y="430" as="targetPoint" />
            <Array as="points">
              <mxPoint x="1370" y="220" />
              <mxPoint x="1350" y="350" />
            </Array>
          </mxGeometry>
        </mxCell>
        <mxCell id="pBgCpkDC4Ms9tkoetQ4E-48" value="" style="curved=1;endArrow=classic;html=1;rounded=0;" edge="1" parent="1">
          <mxGeometry width="50" height="50" relative="1" as="geometry">
            <mxPoint x="1251" y="190" as="sourcePoint" />
            <mxPoint x="1256" y="270" as="targetPoint" />
            <Array as="points">
              <mxPoint x="1226" y="230" />
            </Array>
          </mxGeometry>
        </mxCell>
        <mxCell id="pBgCpkDC4Ms9tkoetQ4E-49" value="" style="curved=1;endArrow=classic;html=1;rounded=0;" edge="1" parent="1">
          <mxGeometry width="50" height="50" relative="1" as="geometry">
            <mxPoint x="1251" y="270" as="sourcePoint" />
            <mxPoint x="1256" y="350" as="targetPoint" />
            <Array as="points">
              <mxPoint x="1226" y="310" />
            </Array>
          </mxGeometry>
        </mxCell>
        <mxCell id="pBgCpkDC4Ms9tkoetQ4E-50" value="" style="curved=1;endArrow=classic;html=1;rounded=0;exitX=1;exitY=0.5;exitDx=0;exitDy=0;" edge="1" parent="1">
          <mxGeometry width="50" height="50" relative="1" as="geometry">
            <mxPoint x="1250" y="190" as="sourcePoint" />
            <mxPoint x="1250" y="430" as="targetPoint" />
            <Array as="points">
              <mxPoint x="1210" y="250" />
              <mxPoint x="1230" y="420" />
            </Array>
          </mxGeometry>
        </mxCell>
        <mxCell id="pBgCpkDC4Ms9tkoetQ4E-51" value="&lt;h1 style=&quot;margin-top: 0px;&quot;&gt;&lt;div&gt;&lt;div&gt;&lt;span style=&quot;font-family: LMRoman10-Regular; font-weight: normal;&quot;&gt;Serializable schedule since there is no cycle.&amp;nbsp;&lt;/span&gt;&lt;/div&gt;&lt;/div&gt;&lt;div&gt;&lt;span style=&quot;font-weight: normal;&quot;&gt;&lt;span style=&quot;font-family: LMRoman10-Regular;&quot;&gt;Serial equivalent&amp;nbsp;&lt;/span&gt;&lt;span style=&quot;font-family: LMRoman10-Regular; background-color: transparent; color: light-dark(rgb(0, 0, 0), rgb(255, 255, 255));&quot;&gt;can be represented as [T1, T3, T5, T2, T4].&lt;/span&gt;&lt;/span&gt;&lt;/div&gt;&lt;br&gt;&lt;/h1&gt;" style="text;html=1;whiteSpace=wrap;overflow=hidden;rounded=0;fontSize=16;" vertex="1" parent="1">
          <mxGeometry x="240" y="620" width="1130" height="140" as="geometry" />
        </mxCell>
        <mxCell id="pBgCpkDC4Ms9tkoetQ4E-52" value="T1" style="text;html=1;align=center;verticalAlign=middle;whiteSpace=wrap;rounded=0;fontSize=25;" vertex="1" parent="1">
          <mxGeometry x="150" y="1010" width="120" height="60" as="geometry" />
        </mxCell>
        <mxCell id="pBgCpkDC4Ms9tkoetQ4E-53" value="T2" style="text;html=1;align=center;verticalAlign=middle;whiteSpace=wrap;rounded=0;fontSize=25;" vertex="1" parent="1">
          <mxGeometry x="255" y="1010" width="120" height="60" as="geometry" />
        </mxCell>
        <mxCell id="pBgCpkDC4Ms9tkoetQ4E-54" value="T3" style="text;html=1;align=center;verticalAlign=middle;whiteSpace=wrap;rounded=0;fontSize=25;" vertex="1" parent="1">
          <mxGeometry x="360" y="1010" width="120" height="60" as="geometry" />
        </mxCell>
        <mxCell id="pBgCpkDC4Ms9tkoetQ4E-55" value="T4" style="text;html=1;align=center;verticalAlign=middle;whiteSpace=wrap;rounded=0;fontSize=25;" vertex="1" parent="1">
          <mxGeometry x="460" y="1010" width="120" height="60" as="geometry" />
        </mxCell>
        <mxCell id="pBgCpkDC4Ms9tkoetQ4E-56" value="T5" style="text;html=1;align=center;verticalAlign=middle;whiteSpace=wrap;rounded=0;fontSize=25;" vertex="1" parent="1">
          <mxGeometry x="550" y="1010" width="120" height="60" as="geometry" />
        </mxCell>
        <mxCell id="pBgCpkDC4Ms9tkoetQ4E-74" value="T1" style="text;html=1;align=center;verticalAlign=middle;whiteSpace=wrap;rounded=0;fontSize=25;" vertex="1" parent="1">
          <mxGeometry x="950" y="1080" width="50" height="20" as="geometry" />
        </mxCell>
        <mxCell id="pBgCpkDC4Ms9tkoetQ4E-75" value="T2" style="text;html=1;align=center;verticalAlign=middle;whiteSpace=wrap;rounded=0;fontSize=25;" vertex="1" parent="1">
          <mxGeometry x="1030" y="1140" width="60" height="30" as="geometry" />
        </mxCell>
        <mxCell id="pBgCpkDC4Ms9tkoetQ4E-77" value="T4" style="text;html=1;align=center;verticalAlign=middle;whiteSpace=wrap;rounded=0;fontSize=25;" vertex="1" parent="1">
          <mxGeometry x="870" y="1150" width="30" height="20" as="geometry" />
        </mxCell>
        <mxCell id="pBgCpkDC4Ms9tkoetQ4E-79" value="" style="endArrow=classic;html=1;rounded=0;entryX=0.25;entryY=0;entryDx=0;entryDy=0;" edge="1" parent="1" target="pBgCpkDC4Ms9tkoetQ4E-75">
          <mxGeometry width="50" height="50" relative="1" as="geometry">
            <mxPoint x="1000" y="1100" as="sourcePoint" />
            <mxPoint x="1040" y="980" as="targetPoint" />
          </mxGeometry>
        </mxCell>
        <mxCell id="pBgCpkDC4Ms9tkoetQ4E-82" value="" style="endArrow=classic;html=1;rounded=0;exitX=0.25;exitY=1;exitDx=0;exitDy=0;" edge="1" parent="1">
          <mxGeometry width="50" height="50" relative="1" as="geometry">
            <mxPoint x="1043.5" y="1162" as="sourcePoint" />
            <mxPoint x="910" y="1160" as="targetPoint" />
          </mxGeometry>
        </mxCell>
        <mxCell id="pBgCpkDC4Ms9tkoetQ4E-84" value="" style="endArrow=classic;html=1;rounded=0;entryX=1;entryY=1;entryDx=0;entryDy=0;" edge="1" parent="1">
          <mxGeometry width="50" height="50" relative="1" as="geometry">
            <mxPoint x="1050" y="1130" as="sourcePoint" />
            <mxPoint x="1000" y="1090" as="targetPoint" />
          </mxGeometry>
        </mxCell>
        <mxCell id="pBgCpkDC4Ms9tkoetQ4E-96" value="R(a)" style="text;html=1;align=center;verticalAlign=middle;whiteSpace=wrap;rounded=0;fontSize=20;" vertex="1" parent="1">
          <mxGeometry x="285" y="1070" width="60" height="30" as="geometry" />
        </mxCell>
        <mxCell id="pBgCpkDC4Ms9tkoetQ4E-97" value="R(a)" style="text;html=1;align=center;verticalAlign=middle;whiteSpace=wrap;rounded=0;fontSize=20;" vertex="1" parent="1">
          <mxGeometry x="180" y="1100" width="60" height="30" as="geometry" />
        </mxCell>
        <mxCell id="pBgCpkDC4Ms9tkoetQ4E-98" value="W(b)" style="text;html=1;align=center;verticalAlign=middle;whiteSpace=wrap;rounded=0;fontSize=20;" vertex="1" parent="1">
          <mxGeometry x="285" y="1130" width="60" height="30" as="geometry" />
        </mxCell>
        <mxCell id="pBgCpkDC4Ms9tkoetQ4E-99" value="W(b)" style="text;html=1;align=center;verticalAlign=middle;whiteSpace=wrap;rounded=0;fontSize=20;" vertex="1" parent="1">
          <mxGeometry x="185" y="1160" width="60" height="30" as="geometry" />
        </mxCell>
        <mxCell id="pBgCpkDC4Ms9tkoetQ4E-100" value="W(c)" style="text;html=1;align=center;verticalAlign=middle;whiteSpace=wrap;rounded=0;fontSize=20;" vertex="1" parent="1">
          <mxGeometry x="185" y="1190" width="60" height="30" as="geometry" />
        </mxCell>
        <mxCell id="pBgCpkDC4Ms9tkoetQ4E-101" value="W(c)" style="text;html=1;align=center;verticalAlign=middle;whiteSpace=wrap;rounded=0;fontSize=20;" vertex="1" parent="1">
          <mxGeometry x="285" y="1220" width="60" height="30" as="geometry" />
        </mxCell>
        <mxCell id="pBgCpkDC4Ms9tkoetQ4E-102" value="R(a)" style="text;html=1;align=center;verticalAlign=middle;whiteSpace=wrap;rounded=0;fontSize=20;" vertex="1" parent="1">
          <mxGeometry x="384" y="1250" width="60" height="30" as="geometry" />
        </mxCell>
        <mxCell id="pBgCpkDC4Ms9tkoetQ4E-103" value="R(b)" style="text;html=1;align=center;verticalAlign=middle;whiteSpace=wrap;rounded=0;fontSize=20;" vertex="1" parent="1">
          <mxGeometry x="490" y="1280" width="60" height="30" as="geometry" />
        </mxCell>
        <mxCell id="pBgCpkDC4Ms9tkoetQ4E-104" value="W(c)" style="text;html=1;align=center;verticalAlign=middle;whiteSpace=wrap;rounded=0;fontSize=20;" vertex="1" parent="1">
          <mxGeometry x="490" y="1310" width="60" height="30" as="geometry" />
        </mxCell>
        <mxCell id="pBgCpkDC4Ms9tkoetQ4E-105" value="W(d)" style="text;html=1;align=center;verticalAlign=middle;whiteSpace=wrap;rounded=0;fontSize=20;" vertex="1" parent="1">
          <mxGeometry x="490" y="1340" width="60" height="30" as="geometry" />
        </mxCell>
        <mxCell id="pBgCpkDC4Ms9tkoetQ4E-106" value="W(e)" style="text;html=1;align=center;verticalAlign=middle;whiteSpace=wrap;rounded=0;fontSize=20;" vertex="1" parent="1">
          <mxGeometry x="580" y="1370" width="60" height="30" as="geometry" />
        </mxCell>
        <mxCell id="pBgCpkDC4Ms9tkoetQ4E-107" value="" style="endArrow=classic;html=1;rounded=0;exitX=0;exitY=0.5;exitDx=0;exitDy=0;entryX=1;entryY=0.25;entryDx=0;entryDy=0;" edge="1" parent="1" source="pBgCpkDC4Ms9tkoetQ4E-98" target="pBgCpkDC4Ms9tkoetQ4E-99">
          <mxGeometry width="50" height="50" relative="1" as="geometry">
            <mxPoint x="420" y="1200" as="sourcePoint" />
            <mxPoint x="470" y="1150" as="targetPoint" />
          </mxGeometry>
        </mxCell>
        <mxCell id="pBgCpkDC4Ms9tkoetQ4E-109" value="" style="endArrow=classic;html=1;rounded=0;exitX=1;exitY=0.5;exitDx=0;exitDy=0;entryX=0.25;entryY=0;entryDx=0;entryDy=0;" edge="1" parent="1" source="pBgCpkDC4Ms9tkoetQ4E-98" target="pBgCpkDC4Ms9tkoetQ4E-103">
          <mxGeometry width="50" height="50" relative="1" as="geometry">
            <mxPoint x="420" y="1200" as="sourcePoint" />
            <mxPoint x="470" y="1150" as="targetPoint" />
          </mxGeometry>
        </mxCell>
        <mxCell id="pBgCpkDC4Ms9tkoetQ4E-111" value="" style="endArrow=classic;html=1;rounded=0;exitX=1;exitY=0.5;exitDx=0;exitDy=0;entryX=0;entryY=0.5;entryDx=0;entryDy=0;" edge="1" parent="1" source="pBgCpkDC4Ms9tkoetQ4E-100" target="pBgCpkDC4Ms9tkoetQ4E-101">
          <mxGeometry width="50" height="50" relative="1" as="geometry">
            <mxPoint x="420" y="1200" as="sourcePoint" />
            <mxPoint x="470" y="1150" as="targetPoint" />
          </mxGeometry>
        </mxCell>
        <mxCell id="pBgCpkDC4Ms9tkoetQ4E-112" value="" style="endArrow=classic;html=1;rounded=0;exitX=1;exitY=0.5;exitDx=0;exitDy=0;entryX=0;entryY=0.25;entryDx=0;entryDy=0;" edge="1" parent="1" source="pBgCpkDC4Ms9tkoetQ4E-99" target="pBgCpkDC4Ms9tkoetQ4E-103">
          <mxGeometry width="50" height="50" relative="1" as="geometry">
            <mxPoint x="430" y="1210" as="sourcePoint" />
            <mxPoint x="480" y="1160" as="targetPoint" />
          </mxGeometry>
        </mxCell>
        <mxCell id="pBgCpkDC4Ms9tkoetQ4E-113" value="" style="endArrow=classic;html=1;rounded=0;exitX=1;exitY=0.75;exitDx=0;exitDy=0;entryX=0;entryY=0.5;entryDx=0;entryDy=0;" edge="1" parent="1" source="pBgCpkDC4Ms9tkoetQ4E-101" target="pBgCpkDC4Ms9tkoetQ4E-104">
          <mxGeometry width="50" height="50" relative="1" as="geometry">
            <mxPoint x="440" y="1220" as="sourcePoint" />
            <mxPoint x="490" y="1170" as="targetPoint" />
          </mxGeometry>
        </mxCell>
        <mxCell id="pBgCpkDC4Ms9tkoetQ4E-114" value="" style="endArrow=classic;html=1;rounded=0;exitX=1;exitY=1;exitDx=0;exitDy=0;" edge="1" parent="1" source="pBgCpkDC4Ms9tkoetQ4E-100">
          <mxGeometry width="50" height="50" relative="1" as="geometry">
            <mxPoint x="450" y="1230" as="sourcePoint" />
            <mxPoint x="490" y="1330" as="targetPoint" />
          </mxGeometry>
        </mxCell>
        <mxCell id="pBgCpkDC4Ms9tkoetQ4E-117" value="" style="endArrow=classic;html=1;rounded=0;" edge="1" parent="1">
          <mxGeometry width="50" height="50" relative="1" as="geometry">
            <mxPoint x="950" y="1100" as="sourcePoint" />
            <mxPoint x="900" y="1150" as="targetPoint" />
          </mxGeometry>
        </mxCell>
        <mxCell id="pBgCpkDC4Ms9tkoetQ4E-118" value="T1" style="text;html=1;align=center;verticalAlign=middle;whiteSpace=wrap;rounded=0;fontSize=25;" vertex="1" parent="1">
          <mxGeometry x="860" y="1250" width="50" height="20" as="geometry" />
        </mxCell>
        <mxCell id="pBgCpkDC4Ms9tkoetQ4E-119" value="T2" style="text;html=1;align=center;verticalAlign=middle;whiteSpace=wrap;rounded=0;fontSize=25;" vertex="1" parent="1">
          <mxGeometry x="990" y="1245" width="60" height="30" as="geometry" />
        </mxCell>
        <mxCell id="pBgCpkDC4Ms9tkoetQ4E-120" value="T4" style="text;html=1;align=center;verticalAlign=middle;whiteSpace=wrap;rounded=0;fontSize=25;" vertex="1" parent="1">
          <mxGeometry x="1120" y="1245" width="60" height="30" as="geometry" />
        </mxCell>
        <mxCell id="pBgCpkDC4Ms9tkoetQ4E-121" value="" style="curved=1;endArrow=classic;html=1;rounded=0;" edge="1" parent="1">
          <mxGeometry width="50" height="50" relative="1" as="geometry">
            <mxPoint x="1315" y="360" as="sourcePoint" />
            <mxPoint x="1310" y="440" as="targetPoint" />
            <Array as="points">
              <mxPoint x="1340" y="400" />
            </Array>
          </mxGeometry>
        </mxCell>
        <mxCell id="pBgCpkDC4Ms9tkoetQ4E-122" value="" style="curved=1;endArrow=classic;html=1;rounded=0;entryX=0.5;entryY=0;entryDx=0;entryDy=0;" edge="1" parent="1" target="pBgCpkDC4Ms9tkoetQ4E-119">
          <mxGeometry width="50" height="50" relative="1" as="geometry">
            <mxPoint x="885" y="1245" as="sourcePoint" />
            <mxPoint x="1040" y="1245" as="targetPoint" />
            <Array as="points">
              <mxPoint x="920" y="1220" />
              <mxPoint x="1000" y="1230" />
            </Array>
          </mxGeometry>
        </mxCell>
        <mxCell id="pBgCpkDC4Ms9tkoetQ4E-124" value="" style="curved=1;endArrow=classic;html=1;rounded=0;entryX=0.5;entryY=0;entryDx=0;entryDy=0;" edge="1" parent="1">
          <mxGeometry width="50" height="50" relative="1" as="geometry">
            <mxPoint x="1020" y="1280" as="sourcePoint" />
            <mxPoint x="885" y="1280" as="targetPoint" />
            <Array as="points">
              <mxPoint x="1000" y="1295" />
              <mxPoint x="920" y="1305" />
            </Array>
          </mxGeometry>
        </mxCell>
        <mxCell id="pBgCpkDC4Ms9tkoetQ4E-125" value="" style="curved=1;endArrow=classic;html=1;rounded=0;" edge="1" parent="1">
          <mxGeometry width="50" height="50" relative="1" as="geometry">
            <mxPoint x="882.5" y="1240" as="sourcePoint" />
            <mxPoint x="1147.5" y="1250" as="targetPoint" />
            <Array as="points">
              <mxPoint x="917.5" y="1215" />
              <mxPoint x="1067.5" y="1190" />
            </Array>
          </mxGeometry>
        </mxCell>
        <mxCell id="pBgCpkDC4Ms9tkoetQ4E-126" value="" style="curved=1;endArrow=classic;html=1;rounded=0;entryX=0.25;entryY=0;entryDx=0;entryDy=0;" edge="1" parent="1" target="pBgCpkDC4Ms9tkoetQ4E-120">
          <mxGeometry width="50" height="50" relative="1" as="geometry">
            <mxPoint x="1030" y="1245" as="sourcePoint" />
            <mxPoint x="1165" y="1245" as="targetPoint" />
            <Array as="points">
              <mxPoint x="1100" y="1210" />
            </Array>
          </mxGeometry>
        </mxCell>
        <mxCell id="pBgCpkDC4Ms9tkoetQ4E-127" value="The schedule is not serializable since there is a cycle between [T1, T2]. In whatever the order we have between [T1, T2], there is a conflict." style="text;whiteSpace=wrap;fontSize=28;" vertex="1" parent="1">
          <mxGeometry x="190" y="1440" width="1000" height="130" as="geometry" />
        </mxCell>
      </root>
    </mxGraphModel>
  </diagram>
</mxfile>
